<svg width="120" height="120" viewBox="0 0 120 120" fill="none" xmlns="http://www.w3.org/2000/svg">
<path d="M60.175 85.06C60.175 81.0818 58.5946 77.2664 55.7816 74.4534C52.9686 71.6404 49.1532 70.06 45.175 70.06L43.62 70.05C42.9099 70.0458 42.2168 69.8317 41.6281 69.4346C41.0393 69.0375 40.5812 68.4752 40.3113 67.8183C40.0413 67.1615 39.9717 66.4394 40.1112 65.7431C40.2507 65.0468 40.5929 64.4073 41.095 63.905L47.07 57.93C48.9449 56.0545 51.4881 55.0006 54.14 55H60C62.6522 55 65.1957 53.9464 67.0711 52.0711C68.9464 50.1957 70 47.6522 70 45C70 42.3478 68.9464 39.8043 67.0711 37.9289C65.1957 36.0536 62.6522 35 60 35H46.215C44.2445 34.9998 42.2932 35.3878 40.4727 36.1419C38.6522 36.896 36.9982 38.0014 35.605 39.395L22.07 52.93C17.5439 57.4579 15.0009 63.5978 15 70C15 80.6087 19.2143 90.7828 26.7157 98.2843C34.2172 105.786 44.3913 110 55 110H65C75.6087 110 85.7828 105.786 93.2843 98.2843C100.786 90.7828 105 80.6087 105 70V35C105 32.3478 103.946 29.8043 102.071 27.9289C100.196 26.0536 97.6522 25 95 25C92.3478 25 89.8043 26.0536 87.9289 27.9289C86.0536 29.8043 85 32.3478 85 35V45C85 47.6522 86.0536 50.1957 87.9289 52.0711C89.8043 53.9464 92.3478 55 95 55C97.6522 55 100.196 53.9464 102.071 52.0711C103.946 50.1957 105 47.6522 105 45" stroke="#2B517A" stroke-width="2.70833" stroke-linecap="round" stroke-linejoin="round"/>
<path d="M69.44 48.31C70.9454 49.317 72.696 49.8963 74.505 49.9859C76.3139 50.0756 78.1133 49.6723 79.7109 48.819C81.3085 47.9658 82.6444 46.6947 83.5759 45.1415C84.5075 43.5882 84.9997 41.8112 85 40V25C85 22.3478 83.9464 19.8043 82.0711 17.9289C80.1957 16.0536 77.6522 15 75 15C72.3478 15 69.8043 16.0536 67.9289 17.9289C66.0536 19.8043 65 22.3478 65 25" stroke="#2B517A" stroke-width="2.70833" stroke-linecap="round" stroke-linejoin="round"/>
<path d="M45 25C45 22.3478 43.9464 19.8043 42.0711 17.9289C40.1957 16.0536 37.6522 15 35 15C32.3478 15 29.8043 16.0536 27.9289 17.9289C26.0536 19.8043 25 22.3478 25 25V50" stroke="#2B517A" stroke-width="2.70833" stroke-linecap="round" stroke-linejoin="round"/>
<path d="M45 35V20C45 17.3478 46.0536 14.8043 47.9289 12.9289C49.8043 11.0536 52.3478 10 55 10C57.6522 10 60.1957 11.0536 62.0711 12.9289C63.9464 14.8043 65 17.3478 65 20V36.34" stroke="#2B517A" stroke-width="2.70833" stroke-linecap="round" stroke-linejoin="round"/>
</svg>
